<svg width="35" height="35" viewBox="0 0 35 35" fill="none" xmlns="http://www.w3.org/2000/svg">
<path d="M8.92514 0.888672C7.92094 0.888672 7.13413 1.47362 7.13413 2.22038V3.68491H3.85199C3.27595 3.68558 2.72371 3.91471 2.3164 4.32203C1.90908 4.72936 1.67997 5.28161 1.67932 5.85765V31.9406C1.68024 32.5163 1.90951 33.0682 2.31682 33.4752C2.72412 33.8821 3.27622 34.1109 3.85199 34.1113H31.1499C31.7255 34.1107 32.2772 33.8818 32.6842 33.4748C33.0911 33.0679 33.32 32.5161 33.3207 31.9406V5.85765C33.3203 5.28187 33.0915 4.72975 32.6846 4.32243C32.2776 3.91511 31.7257 3.68584 31.1499 3.68491H27.8657V2.22038C27.8657 1.47362 27.0796 0.888672 26.0767 0.888672C25.0724 0.888672 24.2857 1.47362 24.2857 2.22038V3.68491H19.291V2.22038C19.291 1.47362 18.5043 0.888672 17.5 0.888672C16.4957 0.888672 15.709 1.47362 15.709 2.22038V3.68491H10.716V2.22038C10.7161 1.47362 9.92941 0.888672 8.92514 0.888672ZM8.22788 2.22852C8.26096 2.15687 8.51232 1.98242 8.92514 1.98242C9.33796 1.98242 9.58925 2.15687 9.62241 2.22852V3.68491H8.22788V2.22852ZM2.7728 10.5205H32.2269V26.7935H28.1504C28.0054 26.7935 27.8663 26.8511 27.7637 26.9536C27.6611 27.0562 27.6035 27.1953 27.6035 27.3403V31.4171H3.85199C3.56589 31.4168 3.2916 31.303 3.08932 31.1006C2.88704 30.8983 2.77331 30.624 2.77307 30.3379L2.7728 10.5205ZM31.4533 27.8872L28.6973 30.6435V27.8871L31.4533 27.8872ZM31.1499 33.0176H3.85199C3.6199 33.0174 3.39404 32.9426 3.20781 32.804C3.02159 32.6655 2.8849 32.4708 2.81798 32.2485C3.13531 32.421 3.49082 32.5111 3.85199 32.5107H28.1504C28.2954 32.5107 28.4346 32.4531 28.5372 32.3505L32.2271 28.6605V31.9406C32.2268 32.2262 32.1132 32.4999 31.9113 32.7018C31.7093 32.9038 31.4355 33.0173 31.1499 33.0176ZM25.3795 2.22852C25.4121 2.15708 25.6631 1.98276 26.0768 1.98276C26.4893 1.98276 26.7399 2.15708 26.7721 2.22845V3.68491H25.3796L25.3795 2.22852ZM16.8027 2.22852C16.8359 2.15694 17.0872 1.98242 17.5 1.98242C17.9128 1.98242 18.164 2.15687 18.1973 2.22852V3.68491H16.8027V2.22852ZM17.5 7.09639C17.645 7.09639 17.7841 7.03877 17.8867 6.93621C17.9893 6.83365 18.0469 6.69455 18.0469 6.54951C18.0469 6.40447 17.9893 6.26537 17.8867 6.16281C17.7841 6.06025 17.645 6.00264 17.5 6.00264C17.0888 6.00264 16.8369 5.82791 16.8027 5.75586V4.77866H24.2858V5.76461C24.2858 6.51137 25.0724 7.09632 26.0768 7.09632C26.2218 7.09632 26.3609 7.0387 26.4635 6.93614C26.566 6.83358 26.6237 6.69448 26.6237 6.54944C26.6237 6.4044 26.566 6.2653 26.4635 6.16274C26.3609 6.06019 26.2218 6.00257 26.0768 6.00257C25.6646 6.00257 25.4131 5.82798 25.3795 5.75613V4.77859H31.1499C31.4357 4.77917 31.7096 4.8931 31.9116 5.09538C32.1135 5.29766 32.2269 5.57177 32.2269 5.85758V9.42676H2.77307V5.85765C2.77336 5.57158 2.88712 5.29732 3.08939 5.09503C3.29167 4.89275 3.56592 4.77897 3.85199 4.77866H7.13426V5.76461C7.13426 6.51137 7.92094 7.09632 8.92528 7.09632C9.07032 7.09632 9.20942 7.0387 9.31198 6.93614C9.41454 6.83358 9.47215 6.69448 9.47215 6.54944C9.47215 6.4044 9.41454 6.2653 9.31198 6.16274C9.20942 6.06019 9.07032 6.00257 8.92528 6.00257C8.51403 6.00257 8.26219 5.82784 8.22801 5.75579V4.77866H15.709V5.76461C15.709 6.51137 16.4957 7.09639 17.5 7.09639ZM12.9481 17.0257H15.7308C15.8758 17.0257 16.0149 16.968 16.1175 16.8655C16.2201 16.7629 16.2777 16.6238 16.2777 16.4788V14.0236C16.2777 13.8785 16.2201 13.7394 16.1175 13.6369C16.0149 13.5343 15.8758 13.4767 15.7308 13.4767H12.9481C12.8031 13.4767 12.664 13.5343 12.5614 13.6369C12.4588 13.7394 12.4012 13.8785 12.4012 14.0236V16.4788C12.4012 16.6238 12.4588 16.7629 12.5614 16.8655C12.664 16.968 12.8031 17.0257 12.9481 17.0257ZM13.495 14.5705H15.1839V15.9319H13.495V14.5705ZM19.2692 17.0257H22.0518C22.1969 17.0257 22.336 16.968 22.4385 16.8655C22.5411 16.7629 22.5987 16.6238 22.5987 16.4788V14.0236C22.5987 13.8785 22.5411 13.7394 22.4385 13.6369C22.336 13.5343 22.1969 13.4767 22.0518 13.4767H19.2692C19.1242 13.4767 18.9851 13.5343 18.8825 13.6369C18.78 13.7394 18.7223 13.8785 18.7223 14.0236V16.4788C18.7223 16.6238 18.78 16.7629 18.8825 16.8655C18.9851 16.968 19.1242 17.0257 19.2692 17.0257ZM19.8161 14.5705H21.505V15.9319H19.8161V14.5705ZM6.62697 23.0329H9.41152C9.55656 23.0329 9.69566 22.9753 9.79822 22.8727C9.90078 22.7701 9.95839 22.631 9.95839 22.486V20.0327C9.95839 19.8877 9.90078 19.7486 9.79822 19.646C9.69566 19.5435 9.55656 19.4858 9.41152 19.4858H6.62697C6.48193 19.4858 6.34283 19.5435 6.24027 19.646C6.13771 19.7486 6.08009 19.8877 6.08009 20.0327V22.486C6.08009 22.631 6.13771 22.7701 6.24027 22.8727C6.34283 22.9753 6.48193 23.0329 6.62697 23.0329ZM7.17384 20.5796H8.86464V21.9391H7.17384V20.5796ZM12.9481 23.0329H15.7308C15.8758 23.0329 16.0149 22.9753 16.1175 22.8727C16.2201 22.7701 16.2777 22.631 16.2777 22.486V20.0327C16.2777 19.8877 16.2201 19.7486 16.1175 19.646C16.0149 19.5435 15.8758 19.4858 15.7308 19.4858H12.9481C12.8031 19.4858 12.664 19.5435 12.5614 19.646C12.4588 19.7486 12.4012 19.8877 12.4012 20.0327V22.486C12.4012 22.631 12.4588 22.7701 12.5614 22.8727C12.664 22.9753 12.8031 23.0329 12.9481 23.0329ZM13.495 20.5796H15.1839V21.9391H13.495V20.5796ZM19.2692 23.0329H22.0518C22.1969 23.0329 22.336 22.9753 22.4385 22.8727C22.5411 22.7701 22.5987 22.631 22.5987 22.486V20.0327C22.5987 19.8877 22.5411 19.7486 22.4385 19.646C22.336 19.5435 22.1969 19.4858 22.0518 19.4858H19.2692C19.1242 19.4858 18.9851 19.5435 18.8825 19.646C18.78 19.7486 18.7223 19.8877 18.7223 20.0327V22.486C18.7223 22.631 18.78 22.7701 18.8825 22.8727C18.9851 22.9753 19.1242 23.0329 19.2692 23.0329ZM19.8161 20.5796H21.505V21.9391H19.8161V20.5796ZM6.62697 29.0401H9.41152C9.55656 29.0401 9.69566 28.9825 9.79822 28.8799C9.90078 28.7774 9.95839 28.6383 9.95839 28.4932V26.0399C9.95839 25.8949 9.90078 25.7558 9.79822 25.6532C9.69566 25.5507 9.55656 25.4931 9.41152 25.4931H6.62697C6.48193 25.4931 6.34283 25.5507 6.24027 25.6532C6.13771 25.7558 6.08009 25.8949 6.08009 26.0399V28.4932C6.08009 28.6383 6.13771 28.7774 6.24027 28.8799C6.34283 28.9825 6.48193 29.0401 6.62697 29.0401ZM7.17384 26.5868H8.86464V27.9463H7.17384V26.5868ZM12.9481 29.0401H15.7308C15.8758 29.0401 16.0149 28.9825 16.1175 28.8799C16.2201 28.7774 16.2777 28.6383 16.2777 28.4932V26.0399C16.2777 25.8949 16.2201 25.7558 16.1175 25.6532C16.0149 25.5507 15.8758 25.4931 15.7308 25.4931H12.9481C12.8031 25.4931 12.664 25.5507 12.5614 25.6532C12.4588 25.7558 12.4012 25.8949 12.4012 26.0399V28.4932C12.4012 28.6383 12.4588 28.7774 12.5614 28.8799C12.664 28.9825 12.8031 29.0401 12.9481 29.0401ZM13.495 26.5868H15.1839V27.9463H13.495V26.5868ZM6.62697 17.0257H9.41152C9.55656 17.0257 9.69566 16.968 9.79822 16.8655C9.90078 16.7629 9.95839 16.6238 9.95839 16.4788V14.0236C9.95839 13.8785 9.90078 13.7394 9.79822 13.6369C9.69566 13.5343 9.55656 13.4767 9.41152 13.4767H6.62697C6.48193 13.4767 6.34283 13.5343 6.24027 13.6369C6.13771 13.7394 6.08009 13.8785 6.08009 14.0236V16.4788C6.08009 16.6238 6.13771 16.7629 6.24027 16.8655C6.34283 16.968 6.48193 17.0257 6.62697 17.0257ZM7.17384 14.5705H8.86464V15.9319H7.17384V14.5705ZM28.373 19.4858H25.5903C25.4453 19.4858 25.3062 19.5435 25.2036 19.646C25.1011 19.7486 25.0435 19.8877 25.0435 20.0327V22.486C25.0435 22.631 25.1011 22.7701 25.2036 22.8727C25.3062 22.9753 25.4453 23.0329 25.5903 23.0329H28.373C28.5181 23.0329 28.6572 22.9753 28.7597 22.8727C28.8623 22.7701 28.9199 22.631 28.9199 22.486V20.0327C28.9199 19.8877 28.8623 19.7486 28.7597 19.646C28.6572 19.5435 28.5181 19.4858 28.373 19.4858ZM27.8262 21.9391H26.1372V20.5796H27.8262V21.9391ZM19.2692 29.0401H22.0518C22.1969 29.0401 22.336 28.9825 22.4385 28.8799C22.5411 28.7774 22.5987 28.6383 22.5987 28.4932V26.0399C22.5987 25.8949 22.5411 25.7558 22.4385 25.6532C22.336 25.5507 22.1969 25.4931 22.0518 25.4931H19.2692C19.1242 25.4931 18.9851 25.5507 18.8825 25.6532C18.78 25.7558 18.7223 25.8949 18.7223 26.0399V28.4932C18.7223 28.6383 18.78 28.7774 18.8825 28.8799C18.9851 28.9825 19.1242 29.0401 19.2692 29.0401ZM19.8161 26.5868H21.505V27.9463H19.8161V26.5868ZM25.1276 15.5956C25.0762 15.5451 25.0354 15.4849 25.0073 15.4185C24.9793 15.3522 24.9646 15.2809 24.9642 15.2089C24.9637 15.1368 24.9776 15.0654 25.0048 14.9987C25.0321 14.932 25.0723 14.8714 25.123 14.8203C25.1738 14.7691 25.2342 14.7285 25.3007 14.7008C25.3672 14.6731 25.4385 14.6588 25.5106 14.6588C25.5826 14.6587 25.6539 14.6729 25.7205 14.7005C25.7871 14.7281 25.8475 14.7685 25.8984 14.8196L26.6021 15.5184L28.0332 13.8273C28.1269 13.7165 28.2608 13.6476 28.4053 13.6355C28.5499 13.6235 28.6933 13.6694 28.804 13.7631C28.9147 13.8568 28.9837 13.9906 28.9957 14.1351C29.0077 14.2797 28.9619 14.4231 28.8682 14.5338L27.0544 16.677C27.0056 16.7347 26.9454 16.7816 26.8775 16.8149C26.8097 16.8481 26.7356 16.8669 26.6602 16.8701C26.6523 16.8701 26.6444 16.8706 26.6366 16.8706C26.4922 16.8706 26.3536 16.8135 26.2512 16.7117L25.1276 15.5956Z" fill="#007E85"/>
</svg>
