<svg width="35" height="35" viewBox="0 0 35 35" fill="none" xmlns="http://www.w3.org/2000/svg">
<path d="M17.4882 19.4283C13.2224 19.2893 12.1994 15.637 11.9804 14.4578C11.5697 14.3627 11.2038 14.1303 10.9432 13.799C10.6456 13.3889 10.5075 12.8845 10.5549 12.3801C10.5211 12.1083 10.5447 11.8324 10.6242 11.5703C10.7037 11.3082 10.8374 11.0657 11.0165 10.8585C11.1176 10.7549 11.2338 10.6671 11.3613 10.5984C10.5684 9.31837 10.178 7.8299 10.2403 6.32553C10.7341 2.79715 13.5776 2.45378 14.4682 2.43391C14.8781 1.95717 15.3905 1.57929 15.9671 1.32857C17.0471 0.89293 18.2408 0.826418 19.3626 1.13938C21.5676 1.71499 23.038 2.81891 23.7357 4.42087C24.7289 6.69776 23.8577 9.31851 23.3573 10.4953C23.5481 10.5573 23.724 10.6583 23.8738 10.7918C24.0776 10.9987 24.2311 11.2496 24.3226 11.5252C24.4142 11.8008 24.4412 12.0938 24.4016 12.3815C24.4494 12.8859 24.3115 13.3904 24.0138 13.8004C23.7528 14.1316 23.3868 14.364 22.9761 14.4592C22.7571 15.637 21.7364 19.2893 17.4882 19.4283ZM12.1516 11.3547C11.9839 11.3468 11.8198 11.4053 11.6947 11.5174C11.6082 11.6386 11.5465 11.7758 11.5133 11.9211C11.4801 12.0663 11.476 12.2167 11.5013 12.3635C11.5033 12.3951 11.5021 12.4268 11.498 12.4581C11.4723 12.7296 11.5424 13.0015 11.6961 13.2267C11.7921 13.3338 11.9084 13.4207 12.0384 13.4823C12.1683 13.5438 12.3092 13.5788 12.4529 13.5852C12.561 13.598 12.6615 13.6477 12.7372 13.7259C12.813 13.8042 12.8594 13.9062 12.8686 14.0147C12.8843 14.1906 13.3038 18.3457 17.4891 18.4828C21.6513 18.3457 22.0727 14.1906 22.0883 14.0137C22.0978 13.9054 22.1443 13.8036 22.22 13.7256C22.2957 13.6475 22.3961 13.5979 22.504 13.5852C22.6477 13.5789 22.7887 13.5439 22.9186 13.4824C23.0486 13.4208 23.1649 13.3339 23.2608 13.2267C23.4153 13.0004 23.4854 12.727 23.459 12.4543C23.455 12.4239 23.4539 12.3932 23.4557 12.3626C23.4812 12.2109 23.4755 12.0557 23.4388 11.9063C23.4021 11.757 23.3353 11.6167 23.2424 11.4942C23.0946 11.3854 22.9108 11.3373 22.7287 11.3599C22.6412 11.3754 22.5511 11.3659 22.4686 11.3326C22.3862 11.2992 22.3149 11.2433 22.2628 11.1713C22.2107 11.0993 22.18 11.014 22.1741 10.9253C22.1683 10.8366 22.1876 10.748 22.2297 10.6698C22.2472 10.6367 23.9797 7.34857 22.8663 4.7931C22.2898 3.47256 21.0312 2.55074 19.1247 2.05317C18.2083 1.79385 17.232 1.84372 16.3469 2.19506C15.8433 2.41202 15.4044 2.75547 15.0727 3.19209C15.0249 3.25704 14.9612 3.30857 14.8878 3.34172C14.8143 3.37486 14.7335 3.38848 14.6532 3.38128C14.5307 3.37134 11.6347 3.18405 11.1806 6.42155C11.1806 6.42155 11.0496 8.99689 12.5413 10.5577C12.6064 10.6257 12.6496 10.7115 12.6656 10.8041C12.6816 10.8968 12.6697 10.9921 12.6312 11.078C12.5958 11.166 12.5333 11.2405 12.4528 11.2907C12.3723 11.341 12.2779 11.3644 12.1833 11.3575L12.1516 11.3547Z" fill="#007E85"/>
<path d="M22.6464 11.366C22.5243 11.3661 22.407 11.319 22.3188 11.2346C22.2307 11.1501 22.1786 11.0349 22.1734 10.9129C22.1678 10.7904 22.0211 7.93319 19.888 7.65839C18.9124 7.7823 17.9217 7.70505 16.977 7.4314C16.0324 7.15776 15.1538 6.69352 14.3954 6.06731C13.7924 6.52089 12.4028 7.89961 12.67 10.8401C12.6735 10.9604 12.631 11.0776 12.5511 11.1677C12.4713 11.2578 12.36 11.3141 12.2401 11.325C12.1202 11.3359 12.0006 11.3007 11.9058 11.2265C11.811 11.1523 11.748 11.0447 11.7297 10.9257C11.3376 6.6117 14.1078 5.11427 14.2256 5.05278C14.3133 5.00703 14.4131 4.98991 14.511 5.00382C14.6089 5.01773 14.7 5.06198 14.7714 5.13035C15.4456 5.74095 16.2436 6.19876 17.111 6.47247C17.9784 6.74618 18.8947 6.82933 19.7972 6.71623C19.8405 6.70922 19.8845 6.70763 19.9282 6.7115C22.3328 6.9617 23.0674 9.54508 23.1194 10.8737C23.1243 10.9988 23.0793 11.1208 22.9943 11.2128C22.9094 11.3049 22.7914 11.3594 22.6663 11.3646L22.6464 11.366Z" fill="#007E85"/>
<path d="M30.7853 34.0541H4.21466C4.08922 34.0541 3.96891 34.0042 3.88021 33.9155C3.79152 33.8268 3.74168 33.7065 3.74168 33.5811V28.3084C3.74506 26.6419 4.40919 25.0448 5.58842 23.8672C6.76765 22.6897 8.36573 22.0278 10.0322 22.0268H10.9403C11.0658 22.0268 11.1861 22.0767 11.2748 22.1654C11.3635 22.2541 11.4133 22.3744 11.4133 22.4998C11.4133 22.6252 11.3635 22.7455 11.2748 22.8342C11.1861 22.9229 11.0658 22.9728 10.9403 22.9728H10.0322C8.61654 22.9735 7.25891 23.5356 6.25703 24.5358C5.25514 25.536 4.69076 26.8927 4.68763 28.3084V33.1081H30.3124V28.3084C30.3107 26.8938 29.7481 25.5376 28.7478 24.5373C27.7475 23.5371 26.3913 22.9744 24.9768 22.9728H24.0034C23.8779 22.9728 23.7576 22.9229 23.6689 22.8342C23.5802 22.7455 23.5304 22.6252 23.5304 22.4998C23.5304 22.3744 23.5802 22.2541 23.6689 22.1654C23.7576 22.0767 23.8779 22.0268 24.0034 22.0268H24.9768C26.642 22.0292 28.2384 22.6918 29.4159 23.8693C30.5934 25.0468 31.2559 26.6431 31.2583 28.3084V33.5811C31.2583 33.7065 31.2085 33.8268 31.1198 33.9155C31.0311 34.0042 30.9108 34.0541 30.7853 34.0541Z" fill="#007E85"/>
<path d="M19.0807 34.0541C19.0126 34.0541 18.9453 34.0394 18.8835 34.011C18.8216 33.9826 18.7665 33.9412 18.7221 33.8896C18.6777 33.838 18.645 33.7775 18.6261 33.7121C18.6073 33.6466 18.6028 33.5779 18.6129 33.5106L20.527 20.843C20.5372 20.776 20.5616 20.7119 20.5986 20.6551C20.6357 20.5984 20.6845 20.5503 20.7418 20.514C20.7991 20.4778 20.8635 20.4543 20.9306 20.4451C20.9978 20.4359 21.0661 20.4413 21.131 20.4608L24.4343 21.4564C24.5 21.4763 24.5607 21.5102 24.6121 21.5559C24.6634 21.6015 24.7042 21.6578 24.7315 21.7208C24.7589 21.7839 24.7722 21.8521 24.7705 21.9208C24.7689 21.9895 24.7522 22.057 24.7218 22.1186L23.4089 24.753L24.1703 25.6077C24.2378 25.684 24.2789 25.78 24.2874 25.8815C24.2959 25.983 24.2715 26.0845 24.2176 26.171L19.4827 33.8299C19.4403 33.8984 19.3812 33.9549 19.3108 33.9942C19.2405 34.0334 19.1612 34.054 19.0807 34.0541ZM21.3812 21.5241L19.8937 31.368L23.2296 25.9761L22.4903 25.1461C22.4275 25.0756 22.3871 24.9878 22.3746 24.8941C22.362 24.8005 22.3778 24.7052 22.4199 24.6206L23.625 22.2018L21.3812 21.5241Z" fill="#007E85"/>
<path d="M15.8649 34.0541C15.7843 34.0541 15.705 34.0335 15.6345 33.9943C15.5641 33.955 15.5049 33.8984 15.4624 33.8299L10.7261 26.1724C10.6723 26.086 10.6478 25.9844 10.6563 25.8829C10.6648 25.7814 10.7059 25.6854 10.7734 25.6091L11.5349 24.7545L10.2219 22.12C10.1915 22.0584 10.1749 21.9909 10.1732 21.9222C10.1715 21.8535 10.1848 21.7853 10.2122 21.7223C10.2396 21.6592 10.2803 21.6029 10.3317 21.5573C10.383 21.5116 10.4437 21.4777 10.5095 21.4578L13.8127 20.4622C13.8776 20.4428 13.9459 20.4375 14.013 20.4467C14.0801 20.4559 14.1444 20.4794 14.2016 20.5157C14.2588 20.5519 14.3076 20.6 14.3446 20.6567C14.3817 20.7134 14.4061 20.7774 14.4162 20.8444L16.3313 33.512C16.3412 33.5791 16.3365 33.6476 16.3177 33.7127C16.2988 33.7778 16.2661 33.8382 16.2219 33.8896C16.1777 33.941 16.1229 33.9823 16.0613 34.0106C15.9997 34.039 15.9328 34.0538 15.8649 34.0541ZM11.716 25.9747L15.0519 31.3666L13.5644 21.5241L11.3206 22.2004L12.5253 24.6192C12.5674 24.7037 12.5833 24.799 12.5708 24.8927C12.5583 24.9863 12.5181 25.0741 12.4553 25.1447L11.716 25.9747Z" fill="#007E85"/>
<path d="M17.508 25.2355C16.4854 25.2347 15.4637 25.1728 14.4484 25.0501C14.3854 25.0443 14.3243 25.026 14.2685 24.9961C14.2127 24.9663 14.1635 24.9256 14.1238 24.8765C14.084 24.8273 14.0545 24.7707 14.037 24.7099C14.0195 24.6492 14.0144 24.5855 14.0219 24.5227C14.0294 24.46 14.0495 24.3993 14.0808 24.3444C14.1122 24.2895 14.1543 24.2415 14.2045 24.2031C14.2548 24.1648 14.3122 24.1369 14.3734 24.1211C14.4346 24.1053 14.4984 24.1019 14.561 24.1112C16.494 24.3489 18.4488 24.3489 20.3818 24.1112C20.5051 24.0979 20.6287 24.1335 20.726 24.2104C20.8232 24.2873 20.8864 24.3993 20.9019 24.5223C20.9174 24.6453 20.884 24.7695 20.8088 24.8681C20.7337 24.9668 20.6228 25.0319 20.5001 25.0496C19.5076 25.1741 18.5083 25.2362 17.508 25.2355Z" fill="#007E85"/>
<path d="M20.9957 21.3864C20.9221 21.3861 20.8496 21.3687 20.7839 21.3354C20.7182 21.3022 20.6612 21.254 20.6174 21.1949C19.9145 20.2447 19.7873 18.3613 19.7755 18.1499C19.7682 18.0247 19.811 17.9017 19.8944 17.8081C19.9777 17.7144 20.0949 17.6577 20.2201 17.6504C20.3449 17.6445 20.4671 17.6878 20.5604 17.7709C20.6538 17.854 20.7109 17.9703 20.7195 18.095C20.7484 18.5926 20.9234 20.0186 21.3774 20.6325C21.4293 20.7028 21.4607 20.786 21.4682 20.8731C21.4757 20.9601 21.4589 21.0475 21.4197 21.1256C21.3805 21.2037 21.3204 21.2694 21.2462 21.3154C21.172 21.3614 21.0864 21.386 20.9991 21.3864H20.9957Z" fill="#007E85"/>
<path d="M13.9499 21.3864C13.8625 21.386 13.777 21.3614 13.7027 21.3154C13.6285 21.2694 13.5684 21.2037 13.5293 21.1256C13.4901 21.0475 13.4733 20.9601 13.4807 20.8731C13.4882 20.786 13.5196 20.7028 13.5715 20.6325C14.0265 20.0176 14.201 18.5921 14.2299 18.095C14.2335 18.0329 14.2493 17.9721 14.2764 17.9161C14.3035 17.8601 14.3413 17.81 14.3878 17.7686C14.4343 17.7272 14.4884 17.6954 14.5472 17.675C14.6059 17.6545 14.6682 17.6458 14.7303 17.6494C14.7924 17.653 14.8532 17.6688 14.9092 17.6959C14.9652 17.723 15.0153 17.7609 15.0567 17.8074C15.0981 17.8538 15.1299 17.908 15.1503 17.9668C15.1707 18.0255 15.1794 18.0877 15.1758 18.1499C15.164 18.3613 15.0339 20.2446 14.3339 21.1949C14.2895 21.2548 14.2316 21.3034 14.1649 21.3367C14.0981 21.37 14.0245 21.387 13.9499 21.3864Z" fill="#007E85"/>
<path d="M27.0328 27.4249C26.9097 27.4249 26.7914 27.377 26.7031 27.2912C26.6148 27.2055 26.5634 27.0887 26.5598 26.9656C26.4713 23.8856 25.3003 22.9165 25.2889 22.907C25.1912 22.8294 25.1278 22.7166 25.1124 22.5928C25.097 22.4689 25.1309 22.344 25.2066 22.2449C25.2818 22.1465 25.3928 22.0818 25.5155 22.0648C25.6381 22.0478 25.7625 22.0799 25.8617 22.1541C25.9241 22.2014 27.4022 23.3493 27.5057 26.9382C27.5093 27.0635 27.463 27.1851 27.377 27.2762C27.2909 27.3674 27.1722 27.4207 27.047 27.4244L27.0328 27.4249Z" fill="#007E85"/>
<path d="M27.0351 30.2173C26.6653 30.2174 26.3038 30.1078 25.9963 29.9024C25.6887 29.697 25.449 29.4051 25.3074 29.0634C25.1659 28.7218 25.1288 28.3459 25.2009 27.9832C25.2729 27.6205 25.451 27.2873 25.7124 27.0257C25.9739 26.7642 26.307 26.5861 26.6697 26.5139C27.0324 26.4417 27.4084 26.4787 27.75 26.6202C28.0917 26.7617 28.3837 27.0014 28.5892 27.3089C28.7947 27.6163 28.9043 27.9778 28.9043 28.3476C28.9038 28.8433 28.7067 29.3185 28.3563 29.669C28.0059 30.0195 27.5308 30.2167 27.0351 30.2173ZM27.0351 27.4239C26.8524 27.4238 26.6738 27.4779 26.5218 27.5794C26.3698 27.6808 26.2514 27.825 26.1814 27.9938C26.1114 28.1626 26.093 28.3483 26.1286 28.5275C26.1642 28.7068 26.2522 28.8714 26.3813 29.0006C26.5105 29.1299 26.6751 29.2179 26.8543 29.2536C27.0335 29.2892 27.2192 29.271 27.388 29.2011C27.5569 29.1312 27.7011 29.0128 27.8027 28.8609C27.9042 28.709 27.9584 28.5303 27.9584 28.3476C27.9581 28.1028 27.8608 27.8681 27.6877 27.6949C27.5146 27.5217 27.28 27.4243 27.0351 27.4239Z" fill="#007E85"/>
<path d="M7.60635 27.4249C7.48651 27.4252 7.37103 27.38 7.28324 27.2984C7.19544 27.2168 7.14188 27.105 7.13337 26.9855C6.8756 23.3554 8.87581 22.1952 8.96094 22.1474C9.0702 22.0858 9.19948 22.07 9.32033 22.1037C9.44118 22.1374 9.54371 22.2177 9.60537 22.3269C9.66702 22.4362 9.68275 22.5655 9.64908 22.6863C9.61542 22.8072 9.53513 22.9097 9.42587 22.9713C9.35398 23.0139 7.86506 23.9329 8.07648 26.9188C8.08532 27.0439 8.0441 27.1674 7.96187 27.2622C7.87965 27.3569 7.76316 27.4151 7.63804 27.4239L7.60635 27.4249Z" fill="#007E85"/>
<path d="M6.64953 31.212C6.57634 31.2123 6.50407 31.1956 6.43842 31.1633C6.37276 31.131 6.3155 31.0838 6.27115 31.0256C6.04027 30.7224 5.87019 30.3774 5.77027 30.0097C5.55071 29.2933 5.62274 28.5193 5.97071 27.8557C6.31868 27.1922 6.91447 26.6928 7.62858 26.4661C7.9673 26.3709 8.3216 26.3441 8.6708 26.3873C9.01999 26.4305 9.35708 26.5428 9.66237 26.7178C10.1974 27.0269 10.6253 27.4919 10.889 28.0507C11.1527 28.6096 11.2396 29.2356 11.138 29.8451C11.1175 29.9688 11.0486 30.0793 10.9465 30.1523C10.8445 30.2252 10.7176 30.2547 10.5939 30.2341C10.4701 30.2135 10.3596 30.1446 10.2867 30.0426C10.2137 29.9405 10.1843 29.8137 10.2049 29.6899C10.2743 29.2723 10.2153 28.8434 10.0358 28.46C9.85624 28.0766 9.56457 27.7567 9.19933 27.5426C9.00239 27.4289 8.78477 27.3556 8.55917 27.3269C8.33357 27.2982 8.10453 27.3148 7.88541 27.3757C7.41148 27.5342 7.01915 27.8731 6.79354 28.3191C6.56793 28.765 6.52723 29.2818 6.68027 29.7576C6.74871 30.0093 6.86532 30.2455 7.02365 30.4528C7.07691 30.5229 7.10956 30.6065 7.1179 30.6941C7.12625 30.7818 7.10996 30.87 7.07089 30.9489C7.03181 31.0278 6.97149 31.0942 6.89671 31.1407C6.82194 31.1872 6.73568 31.2118 6.64764 31.212H6.64953Z" fill="#007E85"/>
<path d="M10.6778 30.2414C10.6594 30.2414 10.6405 30.2414 10.6216 30.2386L10.0885 30.1757C10.0268 30.1683 9.96715 30.1489 9.91294 30.1186C9.85874 30.0882 9.81105 30.0474 9.7726 29.9986C9.73414 29.9498 9.70568 29.8939 9.68884 29.834C9.672 29.7742 9.6671 29.7117 9.67443 29.65C9.68176 29.5883 9.70117 29.5286 9.73156 29.4744C9.76194 29.4202 9.80271 29.3725 9.85152 29.334C9.95011 29.2564 10.0755 29.2211 10.2001 29.2359L10.7332 29.2993C10.8529 29.3135 10.9626 29.3729 11.04 29.4654C11.1174 29.5578 11.1565 29.6763 11.1495 29.7966C11.1424 29.917 11.0897 30.0301 11.002 30.1128C10.9143 30.1956 10.7984 30.2413 10.6778 30.2414Z" fill="#007E85"/>
</svg>
