<svg width="25" height="25" viewBox="0 0 25 25" fill="none" xmlns="http://www.w3.org/2000/svg">
<path fill-rule="evenodd" clip-rule="evenodd" d="M23.4443 23.4374H14.9609V14.9545H23.4443V23.4374ZM23.5908 13.3919H14.8145C14.439 13.3924 14.0791 13.5417 13.8136 13.8072C13.5482 14.0726 13.3989 14.4325 13.3984 14.808V23.5839C13.3989 23.9594 13.5482 24.3193 13.8136 24.5847C14.0791 24.8502 14.439 24.9995 14.8145 24.9999H23.5908C23.9663 24.9996 24.3262 24.8502 24.5917 24.5848C24.8571 24.3193 25.0064 23.9594 25.0068 23.5839V14.808C25.0064 14.4326 24.8571 14.0726 24.5917 13.8072C24.3262 13.5417 23.9663 13.3924 23.5908 13.392V13.3919ZM23.4443 10.0455H14.9609V1.56255H23.4443V10.0456V10.0455ZM23.5908 0H14.8145C14.439 0.000426474 14.0791 0.14975 13.8136 0.415212C13.5482 0.680674 13.3989 1.0406 13.3984 1.41602V10.1921C13.3989 10.5675 13.5482 10.9274 13.8136 11.1929C14.0791 11.4584 14.439 11.6077 14.8145 11.6081H23.5908C23.9663 11.6077 24.3262 11.4584 24.5917 11.1929C24.8571 10.9275 25.0064 10.5675 25.0068 10.1921V1.41606C25.0064 1.04063 24.8571 0.680689 24.5917 0.415218C24.3262 0.149748 23.9663 0.000436604 23.5908 4.88282e-05V0ZM1.56934 1.5625H10.0522V10.0456H1.56924V1.56255L1.56934 1.5625ZM1.42285 11.608H10.1987C10.5741 11.6076 10.934 11.4582 11.1995 11.1928C11.4649 10.9273 11.6143 10.5674 11.6147 10.192V1.41606C11.6143 1.04065 11.4649 0.680735 11.1995 0.415275C10.934 0.149816 10.5741 0.000488199 10.1987 4.88282e-05H1.42275C1.04735 0.000526878 0.687459 0.149867 0.422008 0.415318C0.156557 0.680769 0.00721633 1.04066 0.00673828 1.41606V10.1921C0.00721633 10.5675 0.156557 10.9274 0.422008 11.1928C0.687459 11.4583 1.04735 11.6076 1.42275 11.6081L1.42285 11.608ZM5.81055 14.9479C6.65073 14.9479 7.47205 15.197 8.17063 15.6638C8.86922 16.1306 9.4137 16.794 9.73523 17.5702C10.0568 18.3465 10.1409 19.2006 9.97697 20.0247C9.81306 20.8487 9.40847 21.6056 8.81437 22.1997C8.22027 22.7938 7.46334 23.1984 6.6393 23.3623C5.81526 23.5262 4.96112 23.4421 4.18489 23.1206C3.40866 22.7991 2.74521 22.2546 2.27842 21.556C1.81164 20.8574 1.5625 20.0361 1.5625 19.1959C1.56371 18.0696 2.01167 16.9898 2.80807 16.1934C3.60447 15.397 4.68427 14.9491 5.81055 14.9479ZM5.81055 25.0064C6.95976 25.0064 8.08317 24.6657 9.03871 24.0272C9.99425 23.3887 10.739 22.4812 11.1788 21.4195C11.6186 20.3578 11.7336 19.1894 11.5094 18.0623C11.2852 16.9352 10.7318 15.8998 9.91922 15.0872C9.1066 14.2746 8.07126 13.7212 6.94413 13.497C5.81699 13.2728 4.64868 13.3879 3.58695 13.8277C2.52521 14.2674 1.61772 15.0122 0.979254 15.9677C0.340783 16.9233 0 18.0467 0 19.1959C0.00168009 20.7364 0.614384 22.2134 1.70368 23.3027C2.79299 24.3921 4.26992 25.0048 5.81045 25.0065L5.81055 25.0064Z" fill="#007E85"/>
</svg>
