<svg width="25" height="25" viewBox="0 0 25 25" fill="none" xmlns="http://www.w3.org/2000/svg">
<g clip-path="url(#clip0_64_1454)">
<path d="M22.5 1.70653V1.25653C22.5 0.567364 21.9392 0.00653076 21.25 0.00653076C20.5608 0.00653076 20 0.567364 20 1.25653V1.6732H16.6667V1.25653C16.6667 0.567364 16.1058 0.00653076 15.4167 0.00653076C14.7275 0.00653076 14.1667 0.567364 14.1667 1.25653V1.6732H10.8333V1.25653C10.8333 0.567364 10.2725 0.00653076 9.58333 0.00653076C8.89417 0.00653076 8.33333 0.567364 8.33333 1.25653V1.6732H5V1.25653C5 0.567364 4.43917 0.00653076 3.75 0.00653076C3.06083 0.00653076 2.5 0.567364 2.5 1.25653V1.70653C1.08917 1.90986 0 3.12361 0 4.58986V22.0899C0 23.6978 1.30875 25.0065 2.91667 25.0065H22.0833C23.6912 25.0065 25 23.6978 25 22.0899V4.58986C25 3.12361 23.9108 1.90986 22.5 1.70653ZM20.8333 1.25653C20.8333 1.02653 21.02 0.839864 21.25 0.839864C21.48 0.839864 21.6667 1.02653 21.6667 1.25653V2.9232C21.6667 3.1532 21.48 3.33986 21.25 3.33986C21.02 3.33986 20.8333 3.1532 20.8333 2.9232V1.25653ZM15 1.25653C15 1.02653 15.1867 0.839864 15.4167 0.839864C15.6467 0.839864 15.8333 1.02653 15.8333 1.25653V2.9232C15.8333 3.1532 15.6467 3.33986 15.4167 3.33986C15.1867 3.33986 15 3.1532 15 2.9232V1.25653ZM9.16667 1.25653C9.16667 1.02653 9.35333 0.839864 9.58333 0.839864C9.81333 0.839864 10 1.02653 10 1.25653V2.9232C10 3.1532 9.81333 3.33986 9.58333 3.33986C9.35333 3.33986 9.16667 3.1532 9.16667 2.9232V1.25653ZM3.33333 1.25653C3.33333 1.02653 3.52 0.839864 3.75 0.839864C3.98 0.839864 4.16667 1.02653 4.16667 1.25653V2.9232C4.16667 3.1532 3.98 3.33986 3.75 3.33986C3.52 3.33986 3.33333 3.1532 3.33333 2.9232V1.25653ZM22.0833 24.1732H2.91667C1.76792 24.1732 0.833333 23.2386 0.833333 22.0899V6.6732H24.1667V22.0899C24.1667 23.2386 23.2321 24.1732 22.0833 24.1732ZM24.1667 5.83986H0.833333V4.58986C0.833333 3.58403 1.55042 2.74236 2.5 2.54861V2.9232C2.5 3.61236 3.06083 4.1732 3.75 4.1732C4.43917 4.1732 5 3.61236 5 2.9232V2.50653H8.33333V2.9232C8.33333 3.61236 8.89417 4.1732 9.58333 4.1732C10.2725 4.1732 10.8333 3.61236 10.8333 2.9232V2.50653H14.1667V2.9232C14.1667 3.61236 14.7275 4.1732 15.4167 4.1732C16.1058 4.1732 16.6667 3.61236 16.6667 2.9232V2.50653H20V2.9232C20 3.61236 20.5608 4.1732 21.25 4.1732C21.9392 4.1732 22.5 3.61236 22.5 2.9232V2.54861C23.4496 2.74236 24.1667 3.58361 24.1667 4.58986V5.83986Z" fill="black"/>
<path d="M21.5008 8.9807C21.1021 8.56736 20.565 8.33986 19.9887 8.33986H19.9233C19.7508 7.85611 19.2925 7.50653 18.75 7.50653C18.0608 7.50653 17.5 8.06736 17.5 8.75653C17.5 9.4457 18.0608 10.0065 18.75 10.0065C19.2925 10.0065 19.7508 9.65695 19.9233 9.1732H19.9887C20.3366 9.1732 20.6604 9.31028 20.9008 9.55945C21.1375 9.80486 21.2608 10.1269 21.2491 10.4661C21.2412 10.6761 21.2266 10.9449 21.2021 11.2524C20.9716 12.9874 20.1291 15.8399 17.0833 15.8399C14.0375 15.8399 13.195 12.9874 12.9646 11.2532C12.9396 10.9453 12.9254 10.6769 12.9171 10.4665C12.9054 10.1274 13.0287 9.80486 13.2654 9.55945C13.5058 9.31028 13.8296 9.1732 14.1775 9.1732H14.2429C14.4154 9.65695 14.8737 10.0065 15.4162 10.0065C16.1054 10.0065 16.6662 9.4457 16.6662 8.75653C16.6662 8.06736 16.1054 7.50653 15.4162 7.50653C14.8737 7.50653 14.4154 7.85611 14.2429 8.33986H14.1775C13.6012 8.33986 13.0641 8.56736 12.6654 8.9807C12.2704 9.39028 12.0641 9.9282 12.0841 10.4969C12.0946 10.7761 12.1125 11.0465 12.1325 11.3132H12.1304C12.1312 11.3199 12.1325 11.3261 12.1333 11.3328C12.4329 15.2536 13.7679 17.8199 15.8325 18.5411V19.5899C15.8325 20.0365 16.1871 20.3994 16.6287 20.4194C16.4308 21.6019 15.4033 22.5065 14.1658 22.5065H9.99915C8.6204 22.5065 7.49915 21.3853 7.49915 20.0065V14.5611C9.14081 14.3549 10.4158 12.9532 10.4158 11.2565C10.4158 9.41861 8.92039 7.9232 7.08248 7.9232C5.24456 7.9232 3.74915 9.41861 3.74915 11.2565C3.74915 12.9532 5.02415 14.3549 6.66581 14.5611V20.0065C6.66581 21.8444 8.16123 23.3399 9.99915 23.3399H14.1658C15.8625 23.3399 17.2641 22.0649 17.4704 20.4232H17.4991C17.9587 20.4232 18.3325 20.0494 18.3325 19.5899V18.5411C20.3966 17.8199 21.7316 15.254 22.0312 11.3336C22.0321 11.3269 22.0333 11.3207 22.0341 11.314H22.0321C22.0521 11.0465 22.07 10.7761 22.0804 10.4965C22.1008 9.92861 21.8946 9.3907 21.4991 8.9807H21.5008ZM18.75 9.1732C18.52 9.1732 18.3333 8.98653 18.3333 8.75653C18.3333 8.52653 18.52 8.33986 18.75 8.33986C18.98 8.33986 19.1666 8.52653 19.1666 8.75653C19.1666 8.98653 18.98 9.1732 18.75 9.1732ZM15.4166 8.33986C15.6466 8.33986 15.8333 8.52653 15.8333 8.75653C15.8333 8.98653 15.6466 9.1732 15.4166 9.1732C15.1866 9.1732 15 8.98653 15 8.75653C15 8.52653 15.1866 8.33986 15.4166 8.33986ZM7.08331 12.0899C6.62373 12.0899 6.24998 11.7161 6.24998 11.2565C6.24998 10.7969 6.62373 10.4232 7.08331 10.4232C7.5429 10.4232 7.91665 10.7969 7.91665 11.2565C7.91665 11.7161 7.5429 12.0899 7.08331 12.0899ZM4.58331 11.2565C4.58331 9.87778 5.70456 8.75653 7.08331 8.75653C8.46206 8.75653 9.58331 9.87778 9.58331 11.2565C9.58331 12.4928 8.6804 13.5194 7.49998 13.719V12.864C8.21706 12.6778 8.74998 12.0311 8.74998 11.2565C8.74998 10.3374 8.00248 9.58986 7.08331 9.58986C6.16415 9.58986 5.41665 10.3374 5.41665 11.2565C5.41665 12.0311 5.94956 12.6778 6.66665 12.864V13.719C5.48623 13.5199 4.58331 12.4932 4.58331 11.2565ZM17.5 19.5899H16.6666V18.7286C16.8037 18.7428 16.9412 18.7565 17.0833 18.7565C17.2254 18.7565 17.3629 18.7432 17.5 18.7286V19.5899ZM17.0833 17.9232C15.4866 17.9232 14.5008 16.8032 13.8912 15.404C14.72 16.229 15.7983 16.6732 17.0833 16.6732C18.3683 16.6732 19.4466 16.229 20.2754 15.4032C19.6658 16.8028 18.68 17.9232 17.0833 17.9232Z" fill="black"/>
</g>
<defs>
<clipPath id="clip0_64_1454">
<rect width="25" height="25" fill="white" transform="translate(0 0.00653076)"/>
</clipPath>
</defs>
</svg>
