<svg width="26" height="26" viewBox="0 0 26 26" fill="none" xmlns="http://www.w3.org/2000/svg">
<g clip-path="url(#clip0_64_1467)">
<path d="M13 0.00653076C6.69982 0.00653076 1.57422 5.13214 1.57422 11.4323C1.57422 12.1305 1.57422 17.5315 1.57422 17.6276C1.57422 18.8877 2.59934 19.9128 3.85938 19.9128H4.75211C5.06655 20.7993 5.91322 21.4362 6.90625 21.4362C8.16629 21.4362 9.19141 20.4111 9.19141 19.1511V12.9557C9.19141 11.6957 8.16629 10.6706 6.90625 10.6706C5.91322 10.6706 5.06655 11.3075 4.75211 12.194H3.85938C3.59232 12.194 3.33607 12.2405 3.09766 12.325V11.4323C3.09766 5.97216 7.53985 1.52997 13 1.52997C18.4602 1.52997 22.9023 5.97216 22.9023 11.4323V12.325C22.6639 12.2405 22.4077 12.194 22.1406 12.194H21.2479C20.9335 11.3075 20.0868 10.6706 19.0938 10.6706C17.8337 10.6706 16.8086 11.6957 16.8086 12.9557V19.1511C16.8086 20.4111 17.8337 21.4362 19.0938 21.4362C19.3243 21.4362 19.547 21.4016 19.757 21.3378C19.4721 22.2753 18.5998 22.9597 17.5703 22.9597H15.1541C14.8397 22.0731 13.993 21.4362 13 21.4362C11.74 21.4362 10.7148 22.4613 10.7148 23.7214C10.7148 24.9814 11.74 26.0065 13 26.0065C13.993 26.0065 14.8397 25.3696 15.1541 24.4831H17.5703C19.6704 24.4831 21.3789 22.7746 21.3789 20.6745V19.9128H22.1406C23.4007 19.9128 24.4258 18.8877 24.4258 17.6276C24.4258 17.533 24.4258 12.1299 24.4258 11.4323C24.4258 5.13214 19.3002 0.00653076 13 0.00653076ZM6.14453 12.9557C6.14453 12.5357 6.48624 12.194 6.90625 12.194C7.32626 12.194 7.66797 12.5357 7.66797 12.9557V19.1511C7.66797 19.5711 7.32626 19.9128 6.90625 19.9128C6.48624 19.9128 6.14453 19.5711 6.14453 19.1511V12.9557ZM3.85938 13.7175H4.62109V18.3893H3.85938C3.43936 18.3893 3.09766 18.0476 3.09766 17.6276V14.4792C3.09766 14.0592 3.43936 13.7175 3.85938 13.7175ZM13 24.4831C12.58 24.4831 12.2383 24.1414 12.2383 23.7214C12.2383 23.3014 12.58 22.9597 13 22.9597C13.42 22.9597 13.7617 23.3014 13.7617 23.7214C13.7617 24.1414 13.42 24.4831 13 24.4831ZM19.8555 19.1511C19.8555 19.5711 19.5138 19.9128 19.0938 19.9128C18.6737 19.9128 18.332 19.5711 18.332 19.1511V12.9557C18.332 12.5357 18.6737 12.194 19.0938 12.194C19.5138 12.194 19.8555 12.5357 19.8555 12.9557V19.1511ZM22.9023 17.6276C22.9023 18.0476 22.5606 18.3893 22.1406 18.3893H21.3789V13.7175H22.1406C22.5606 13.7175 22.9023 14.0592 22.9023 14.4792V17.6276Z" fill="black"/>
</g>
<defs>
<clipPath id="clip0_64_1467">
<rect width="26" height="26" fill="white" transform="translate(0 0.00653076)"/>
</clipPath>
</defs>
</svg>
