<svg width="28" height="28" viewBox="0 0 28 28" fill="none" xmlns="http://www.w3.org/2000/svg">
<path d="M24.625 15.4375V14.5625C24.8665 14.5625 25.0625 14.3667 25.0625 14.125V11.5C25.0625 11.2584 24.8665 11.0625 24.625 11.0625H22.2625L22.1777 10.7339C21.9843 9.98225 21.6838 9.26226 21.2851 8.59627L21.1101 8.30352L22.7875 6.62324C22.9564 6.45405 22.9564 6.17993 22.7875 6.01074L20.9295 4.15C20.7579 3.98645 20.4884 3.98645 20.3168 4.15L18.6364 5.83045L18.3438 5.65545C17.6768 5.25657 16.9561 4.95613 16.2035 4.7625L15.875 4.67705V2.3125C15.875 2.07085 15.6792 1.875 15.4375 1.875H12.8125C12.5709 1.875 12.375 2.07085 12.375 2.3125V4.675L12.0464 4.75994C11.2948 4.95322 10.5748 5.25366 9.90842 5.65186L9.61567 5.82703L7.93574 4.15C7.76399 3.98508 7.49277 3.98508 7.32102 4.15L5.4625 6.00801C5.38081 6.08953 5.33484 6.20027 5.33484 6.31563C5.33484 6.43115 5.38081 6.54172 5.4625 6.62324L7.14295 8.30352L6.96795 8.59627C6.56941 9.26226 6.2688 9.98225 6.07551 10.7339L5.98972 11.0625H3.625C3.38335 11.0625 3.1875 11.2584 3.1875 11.5V14.125C3.1875 14.3667 3.38335 14.5625 3.625 14.5625V15.4375C2.90022 15.4375 2.3125 14.8498 2.3125 14.125V11.5C2.3125 10.7752 2.90022 10.1875 3.625 10.1875H5.31775C5.49822 9.58252 5.74226 8.99839 6.04578 8.44502L4.84265 7.2419C4.59656 6.99631 4.4583 6.66306 4.4583 6.31563C4.4583 5.96819 4.59656 5.63494 4.84265 5.38953L6.70203 3.53015C7.22002 3.03438 8.03674 3.03438 8.55474 3.53015L9.75752 4.73276C10.3109 4.42942 10.8952 4.18589 11.5 4.00559V2.3125C11.5 1.58772 12.0877 1 12.8125 1H15.4375C16.1623 1 16.75 1.58772 16.75 2.3125V4.00559C17.355 4.18589 17.9389 4.42993 18.4925 4.73328L19.6956 3.53015C20.2138 3.03438 21.0303 3.03438 21.5485 3.53015L23.4075 5.38901C23.6534 5.6346 23.7915 5.96751 23.7915 6.31511C23.7915 6.66272 23.6534 6.99597 23.4075 7.24138L22.2044 8.44451C22.5077 8.99822 22.7516 9.58252 22.9323 10.1875H24.625C25.3498 10.1875 25.9375 10.7752 25.9375 11.5V14.125C25.9375 14.8498 25.3498 15.4375 24.625 15.4375Z" fill="black" stroke="black" stroke-width="0.3"/>
<path d="M20.25 12.8125H19.375C19.375 9.91304 17.0245 7.5625 14.125 7.5625C11.2255 7.5625 8.875 9.91304 8.875 12.8125H8C8 9.42974 10.7422 6.6875 14.125 6.6875C17.5076 6.6875 20.25 9.42974 20.25 12.8125Z" fill="black" stroke="black" stroke-width="0.3"/>
<path d="M14.125 16.3125C12.6753 16.3125 11.5 15.1371 11.5 13.6875C11.5 12.2378 12.6753 11.0625 14.125 11.0625C15.5749 11.0625 16.75 12.2378 16.75 13.6875C16.7485 15.1367 15.5742 16.311 14.125 16.3125ZM14.125 11.9375C13.1586 11.9375 12.375 12.7211 12.375 13.6875C12.375 14.6539 13.1586 15.4375 14.125 15.4375C15.0914 15.4375 15.875 14.6539 15.875 13.6875C15.875 12.7211 15.0914 11.9375 14.125 11.9375Z" fill="black" stroke="black" stroke-width="0.3"/>
<path d="M21.5625 18.0625C20.1128 18.0625 18.9375 16.8871 18.9375 15.4375C18.9375 13.9878 20.1128 12.8125 21.5625 12.8125C23.0122 12.8125 24.1875 13.9878 24.1875 15.4375C24.186 16.8867 23.0117 18.061 21.5625 18.0625ZM21.5625 13.6875C20.5961 13.6875 19.8125 14.4711 19.8125 15.4375C19.8125 16.4039 20.5961 17.1875 21.5625 17.1875C22.5289 17.1875 23.3125 16.4039 23.3125 15.4375C23.3125 14.4711 22.5289 13.6875 21.5625 13.6875Z" fill="black" stroke="black" stroke-width="0.3"/>
<path d="M6.6875 18.0625C5.23777 18.0625 4.0625 16.8871 4.0625 15.4375C4.0625 13.9878 5.23777 12.8125 6.6875 12.8125C8.1374 12.8125 9.3125 13.9878 9.3125 15.4375C9.31096 16.8867 8.13672 18.061 6.6875 18.0625ZM6.6875 13.6875C5.72107 13.6875 4.9375 14.4711 4.9375 15.4375C4.9375 16.4039 5.72107 17.1875 6.6875 17.1875C7.65393 17.1875 8.4375 16.4039 8.4375 15.4375C8.4375 14.4711 7.65393 13.6875 6.6875 13.6875Z" fill="black" stroke="black" stroke-width="0.3"/>
<path d="M25.5287 19.185C24.8767 18.7369 24.1038 18.4978 23.3125 18.5H19.8125C19.5997 18.5019 19.3873 18.5212 19.1776 18.5576C18.8977 18.1198 18.5335 17.7421 18.1063 17.4459C18.0422 17.3976 17.9748 17.3536 17.9046 17.3148C17.2926 16.9442 16.5904 16.749 15.875 16.75H12.375C11.037 16.7452 9.79033 17.428 9.07359 18.5576C8.86338 18.5212 8.65061 18.5019 8.4375 18.5H4.9375C4.14692 18.4978 3.37412 18.7365 2.72249 19.1841C1.64548 19.9169 1.00068 21.1349 1 22.4375V24.1875C1.00154 25.3821 1.69658 26.467 2.78162 26.9674C3.1822 27.156 3.61987 27.2526 4.0625 27.25H8.4375V26.375H4.5V21.5625H3.625V26.3311C3.46025 26.2981 3.30029 26.2448 3.14854 26.1729C2.37351 25.8155 1.87671 25.0408 1.875 24.1875V22.4375C1.87603 21.4238 2.3783 20.4761 3.21638 19.906C3.72275 19.5584 4.32312 19.3733 4.9375 19.375H8.4375C8.51458 19.375 8.58892 19.3832 8.66411 19.3884C8.51611 19.8057 8.43938 20.2449 8.4375 20.6875V25.0625C8.43904 26.2701 9.4176 27.2485 10.625 27.25H11.9375V20.25H11.0625V26.375H10.625C9.90022 26.375 9.3125 25.7873 9.3125 25.0625V20.6875C9.3125 18.996 10.6838 17.625 12.375 17.625H15.875C16.4379 17.6254 16.9896 17.7812 17.4697 18.0752C17.5141 18.0994 17.5568 18.1268 17.5973 18.1569C18.0073 18.4376 18.3438 18.8128 18.5783 19.2506C18.8139 19.6929 18.9375 20.1863 18.9375 20.6875V25.0625C18.9375 25.7873 18.3498 26.375 17.625 26.375H17.1875V20.25H16.3125V27.25H17.625C18.8326 27.2485 19.811 26.2701 19.8125 25.0625V20.6875C19.8105 20.2449 19.7341 19.8059 19.5862 19.3884C19.6616 19.3832 19.7359 19.375 19.8125 19.375H23.3125C23.9272 19.3733 24.5281 19.5589 25.0348 19.9069C25.8722 20.4773 26.3738 21.4243 26.375 22.4375V24.1875C26.3735 25.0439 25.8729 25.8208 25.0941 26.1763C24.9446 26.247 24.787 26.299 24.625 26.3311V21.5625H23.75V26.375H19.8125V27.25H24.1875C24.6276 27.2528 25.0627 27.1574 25.461 26.9708C26.5497 26.4719 27.2483 25.385 27.25 24.1875V22.4375C27.2493 21.1354 26.605 19.918 25.5287 19.185Z" fill="black" stroke="black" stroke-width="0.3"/>
<path d="M12.375 26.375H15.875V27.25H12.375V26.375Z" fill="black" stroke="black" stroke-width="0.3"/>
</svg>
