<svg width="27" height="28" viewBox="0 0 27 28" fill="none" xmlns="http://www.w3.org/2000/svg">
<path d="M13.361 19.84C10.1445 19.84 7.52759 17.2231 7.52759 14.0066C7.52759 10.79 10.1445 8.17316 13.361 8.17316C16.5773 8.17316 19.1942 10.79 19.1942 14.0066C19.1942 17.2231 16.5773 19.84 13.361 19.84ZM13.361 9.92316C11.1092 9.92316 9.27759 11.755 9.27759 14.0066C9.27759 16.2581 11.1092 18.09 13.361 18.09C15.6126 18.09 17.4442 16.2581 17.4442 14.0066C17.4442 11.755 15.6126 9.92316 13.361 9.92316Z" fill="black"/>
<path d="M15.3012 28.0065H11.4207C10.4874 28.0065 9.66261 27.3439 9.45967 26.4304L8.96855 24.2463C8.16811 23.9069 7.40504 23.4636 6.68877 22.9223L4.56194 23.5941C3.64955 23.8776 2.65791 23.4903 2.20055 22.6736L0.266403 19.3289C-0.196945 18.5005 -0.0405734 17.4809 0.640884 16.8392L2.2892 15.3237C2.23921 14.8792 2.21465 14.4383 2.21465 14.0065C2.21465 13.5748 2.23921 13.1339 2.28813 12.6893L0.649002 11.1809C-0.0405733 10.5322 -0.198013 9.51254 0.260422 8.69479L2.20653 5.32895C2.65791 4.52145 3.6519 4.13779 4.55852 4.41656L6.68877 5.08969C7.40504 4.54837 8.16811 4.1051 8.96855 3.76544L9.46074 1.57922C9.66261 0.66919 10.4874 0.00653076 11.4207 0.00653076H15.3012C16.2345 0.00653076 17.0593 0.66919 17.2623 1.58264L17.7534 3.76672C18.5538 4.10617 19.3169 4.54944 20.0332 5.09076L22.16 4.41891C23.0747 4.13779 24.064 4.52274 24.5214 5.33942L26.4557 8.68411C26.9189 9.51254 26.7625 10.5322 26.081 11.1739L24.4327 12.6893C24.4816 13.1339 24.5062 13.5761 24.5062 14.0065C24.5062 14.437 24.4816 14.8792 24.4327 15.3237L26.0729 16.8311C26.0753 16.8334 26.0776 16.8358 26.081 16.8381C26.7625 17.4796 26.9199 18.4995 26.4615 19.3172L24.5154 22.683C24.064 23.4903 23.0724 23.8766 22.1623 23.5941L20.0319 22.921C19.3156 23.4623 18.5525 23.9056 17.7523 24.2453L17.2599 26.4315C17.0593 27.3439 16.2345 28.0065 15.3012 28.0065ZM6.86736 21.0753C7.06795 21.0753 7.26512 21.1441 7.42384 21.2748C8.22536 21.9341 9.09908 22.4427 10.0243 22.7834C10.3031 22.886 10.5096 23.1229 10.575 23.4121L11.1689 26.0489C11.1956 26.1702 11.3017 26.2565 11.422 26.2565H15.3023C15.4225 26.2565 15.5287 26.1702 15.5543 26.0512L16.1493 23.4121C16.2146 23.1229 16.4212 22.886 16.7 22.7834C17.6239 22.4427 18.4989 21.9341 19.3004 21.2748C19.5292 21.0858 19.8371 21.0251 20.1207 21.1151L22.6885 21.926C22.8109 21.9644 22.9416 21.9189 22.9976 21.8185L24.9437 18.4527C25.002 18.3488 24.9809 18.2066 24.8877 18.1156L22.9184 16.3049C22.7047 16.1088 22.6022 15.8183 22.6453 15.5314C22.7222 15.0146 22.7609 14.5013 22.7609 14.0055C22.7609 13.5094 22.7222 12.9961 22.6453 12.4793C22.6022 12.1924 22.7047 11.903 22.9184 11.7058L24.8922 9.89044C24.9809 9.80777 25.002 9.66293 24.9377 9.54758L23.0034 6.20267C22.9406 6.0918 22.8075 6.04758 22.6861 6.08603L20.1218 6.89566C19.8394 6.9856 19.5316 6.92493 19.3017 6.73587C18.5002 6.07663 17.6263 5.56799 16.7011 5.22726C16.4223 5.12473 16.2157 4.88782 16.1506 4.59857L15.5567 1.96182C15.5274 1.84283 15.4212 1.75653 15.3012 1.75653H11.4207C11.3007 1.75653 11.1945 1.84283 11.1689 1.96182L10.5737 4.60092C10.5086 4.89017 10.302 5.12579 10.0232 5.22961C9.09908 5.57034 8.22408 6.07898 7.42384 6.73822C7.19398 6.92728 6.88359 6.98666 6.60374 6.89801L4.03578 6.0871C3.91573 6.04993 3.78264 6.09415 3.72667 6.19455L1.78056 9.55911C1.72224 9.66422 1.74339 9.80884 1.84016 9.89984L3.8072 11.7071C4.02061 11.903 4.12337 12.1935 4.08022 12.4806C4.0031 12.9974 3.96465 13.5107 3.96465 14.0065C3.96465 14.5023 4.0031 15.0157 4.08022 15.5324C4.12337 15.8195 4.02061 16.1088 3.8072 16.306L1.83311 18.1213C1.74446 18.2042 1.72353 18.3488 1.78761 18.4644L3.72197 21.8091C3.78371 21.92 3.91679 21.9631 4.0392 21.926L6.60374 21.1161C6.69005 21.0881 6.7787 21.0753 6.86736 21.0753Z" fill="black"/>
</svg>
